<?xml version="1.0" standalone="no"?>
<!DOCTYPE svg PUBLIC "-//W3C//DTD SVG 20010904//EN"
 "http://www.w3.org/TR/2001/REC-SVG-20010904/DTD/svg10.dtd">
<svg version="1.0" xmlns="http://www.w3.org/2000/svg"
 width="500.000000pt" height="244.000000pt" viewBox="0 0 500.000000 244.000000"
 preserveAspectRatio="xMidYMid meet">

<g transform="translate(0.000000,244.000000) scale(0.100000,-0.100000)"
fill="#000000" stroke="none">
<path d="M4105 2104 c-5 -2 -47 -13 -93 -25 -67 -17 -91 -29 -131 -65 -92 -83
-120 -178 -191 -651 -52 -341 -54 -384 -19 -406 41 -26 130 39 173 126 47 94
27 121 -23 32 -29 -52 -61 -81 -75 -68 -12 13 -5 77 44 394 57 366 55 352 82
438 30 92 73 137 148 152 38 7 67 20 80 34 22 23 24 45 5 39z"/>
<path d="M827 1856 c-51 -19 -85 -52 -97 -94 -13 -50 -2 -58 34 -24 45 42 69
53 129 53 64 1 160 -10 177 -21 9 -6 0 -87 -45 -371 -31 -200 -65 -402 -76
-449 -33 -142 -79 -195 -165 -192 -66 3 -94 35 -115 131 -12 56 -23 58 -71 13
-38 -35 -43 -66 -18 -116 24 -50 62 -80 120 -96 149 -40 293 87 354 315 9 33
43 231 76 440 33 209 62 389 65 400 6 19 1 20 -162 22 -124 2 -178 -1 -206
-11z"/>
<path d="M1415 1575 c-40 -20 -89 -76 -114 -131 -38 -80 -20 -90 27 -14 30 48
56 69 69 57 3 -4 -9 -95 -26 -204 -45 -285 -42 -333 23 -333 54 0 151 84 224
193 14 20 26 36 27 35 1 -2 -4 -41 -12 -88 -18 -104 -9 -140 34 -140 60 0 145
84 159 156 10 53 -1 62 -23 19 -26 -50 -70 -92 -82 -79 -9 9 67 444 88 505 12
36 5 41 -36 24 -44 -19 -59 -46 -82 -154 -26 -118 -86 -243 -148 -310 -51 -54
-98 -75 -109 -48 -3 9 11 117 31 240 37 232 37 266 0 281 -21 7 -15 9 -50 -9z"/>
<path d="M2261 1579 c-178 -35 -340 -290 -329 -516 4 -91 24 -118 82 -110 57
8 113 59 214 192 l22 30 -10 -29 c-6 -16 -22 -95 -36 -175 -54 -315 -83 -390
-165 -432 -32 -16 -54 -20 -91 -17 -77 8 -109 49 -123 161 -4 31 -12 57 -17
57 -5 0 -23 -14 -40 -30 -29 -29 -30 -34 -26 -99 6 -112 60 -171 158 -171 134
0 298 149 350 318 11 35 34 161 51 280 17 120 48 287 70 372 40 161 40 169 -6
170 -11 0 -29 2 -40 4 -11 2 -40 0 -64 -5z m20 -88 l23 -18 -17 -69 c-21 -85
-93 -235 -141 -290 -44 -51 -88 -70 -108 -47 -30 37 -2 208 52 320 54 109 132
152 191 104z"/>
<path d="M2831 1579 c-174 -34 -331 -266 -331 -491 0 -102 17 -138 64 -138 50
0 122 53 186 137 30 40 55 71 56 70 1 -1 -9 -54 -21 -117 -12 -63 -32 -167
-44 -230 -37 -200 -91 -277 -201 -288 -90 -8 -134 39 -146 157 -4 34 -10 61
-14 61 -21 0 -61 -46 -70 -79 -19 -70 17 -167 73 -201 138 -85 390 104 446
333 6 26 25 141 41 255 25 173 80 440 105 504 5 13 -3 18 -45 27 -28 6 -52 11
-53 10 -1 -1 -22 -5 -46 -10z m16 -84 c27 -19 23 -54 -18 -168 -64 -179 -176
-308 -225 -260 -35 35 10 256 70 352 52 82 121 112 173 76z"/>
<path d="M3401 1579 c-174 -34 -331 -266 -331 -491 0 -102 17 -138 64 -138 50
0 122 53 186 137 30 40 55 71 56 70 1 -1 -9 -54 -21 -117 -12 -63 -32 -167
-44 -230 -37 -200 -91 -277 -201 -288 -90 -8 -134 39 -146 157 -4 34 -10 61
-14 61 -21 0 -61 -46 -70 -79 -19 -70 17 -167 73 -201 138 -85 390 104 446
333 6 26 25 141 41 255 25 173 80 440 105 504 5 13 -3 18 -45 27 -28 6 -52 11
-53 10 -1 -1 -22 -5 -46 -10z m16 -84 c27 -19 23 -54 -18 -168 -64 -179 -176
-308 -225 -260 -35 35 10 256 70 352 52 82 121 112 173 76z"/>
<path d="M4240 1581 c-82 -25 -160 -103 -215 -215 -80 -163 -88 -310 -20 -382
28 -29 39 -34 79 -34 57 0 113 27 166 80 48 48 72 93 68 128 -3 26 -4 26 -35
-20 -73 -104 -182 -120 -219 -33 -24 59 -20 70 50 104 131 64 226 186 226 291
0 65 -41 98 -100 81z m-3 -89 c19 -12 25 -57 13 -103 -15 -56 -84 -125 -134
-134 -51 -10 -57 -2 -40 58 40 134 109 212 161 179z"/>
</g>
</svg>
