<?xml version="1.0" encoding="UTF-8"?>
<!DOCTYPE svg PUBLIC "-//W3C//DTD SVG 1.1//EN" "http://www.w3.org/Graphics/SVG/1.1/DTD/svg11.dtd">
<svg xmlns="http://www.w3.org/2000/svg" version="1.1" width="500px" height="224px" style="shape-rendering:geometricPrecision; text-rendering:geometricPrecision; image-rendering:optimizeQuality; fill-rule:evenodd; clip-rule:evenodd" xmlns:xlink="http://www.w3.org/1999/xlink">
<g><path style="opacity:1" fill="#fefefe" d="M -0.5,-0.5 C 166.167,-0.5 332.833,-0.5 499.5,-0.5C 499.5,74.1667 499.5,148.833 499.5,223.5C 332.833,223.5 166.167,223.5 -0.5,223.5C -0.5,148.833 -0.5,74.1667 -0.5,-0.5 Z"/></g>
<g><path style="opacity:1" fill="#cd72e7" d="M 409.5,32.5 C 410.497,32.4701 411.164,32.9701 411.5,34C 410.561,35.9439 409.227,37.6106 407.5,39C 403.54,40.0913 399.54,41.0913 395.5,42C 392.238,44.592 389.738,47.7587 388,51.5C 385.059,59.2638 383.059,67.2638 382,75.5C 378.32,96.3982 375.486,117.398 373.5,138.5C 375.722,138.822 377.556,138.155 379,136.5C 380.96,133.415 382.793,130.248 384.5,127C 385.6,126.568 386.267,127.068 386.5,128.5C 384.691,137.473 379.691,143.973 371.5,148C 367.248,149.414 364.748,147.914 364,143.5C 365.876,122.774 368.542,102.107 372,81.5C 373.289,66.9604 378.122,53.7937 386.5,42C 388.901,39.9376 391.567,38.2709 394.5,37C 399.664,35.6314 404.664,34.1314 409.5,32.5 Z"/></g>
<g><path style="opacity:1" fill="#cd71e6" d="M 84.5,56.5 C 96.1991,57.2154 107.866,57.2154 119.5,56.5C 114.683,84.0905 110.183,111.757 106,139.5C 103.666,152.007 97.8324,162.507 88.5,171C 78.5439,177.418 69.0439,176.918 60,169.5C 52.9728,160.941 54.4728,154.274 64.5,149.5C 65.086,149.709 65.586,150.043 66,150.5C 66.0624,166.257 73.229,171.091 87.5,165C 91.3655,159.077 93.8655,152.577 95,145.5C 99.4945,118.875 103.661,92.2084 107.5,65.5C 99.1731,64.778 90.8398,64.6113 82.5,65C 78.7424,66.9229 75.4091,69.4229 72.5,72.5C 71.2423,69.2778 71.7423,66.2778 74,63.5C 76.9978,60.2623 80.4978,57.9289 84.5,56.5 Z"/></g>
<g><path style="opacity:1" fill="#cc71e6" d="M 178.5,84.5 C 179.675,84.281 180.675,84.6143 181.5,85.5C 177.225,101.942 173.891,118.609 171.5,135.5C 171.833,136.833 172.167,138.167 172.5,139.5C 176.86,136.449 180.026,132.449 182,127.5C 182.079,136.829 177.913,143.663 169.5,148C 165.564,149.461 163.064,148.295 162,144.5C 161.605,138.746 161.938,133.08 163,127.5C 157.5,135.667 150.667,142.5 142.5,148C 139.901,148.769 137.401,148.602 135,147.5C 133.43,141.947 133.097,136.281 134,130.5C 136.16,118.538 137.994,106.538 139.5,94.5C 137.097,94.393 135.264,95.393 134,97.5C 132.374,99.9171 130.874,102.417 129.5,105C 128.517,105.591 127.85,105.257 127.5,104C 129.918,96.5875 134.251,90.5875 140.5,86C 146.037,84.0147 149.037,85.848 149.5,91.5C 147.037,105.815 144.704,120.148 142.5,134.5C 142.427,138.073 144.094,139.24 147.5,138C 157.96,129.174 164.793,118.007 168,104.5C 167.622,95.58 171.122,88.9133 178.5,84.5 Z"/></g>
<g><path style="opacity:1" fill="#cc71e6" d="M 226.5,84.5 C 231.301,84.3498 235.967,85.0165 240.5,86.5C 233.608,111.744 228.774,137.41 226,163.5C 221.815,181.014 211.315,192.847 194.5,199C 183.554,201.362 176.721,197.195 174,186.5C 173.333,182.833 173.333,179.167 174,175.5C 175.364,172.637 177.53,170.637 180.5,169.5C 181.508,174.531 182.674,179.531 184,184.5C 187.655,191.07 193.155,193.237 200.5,191C 205.935,189.231 209.768,185.731 212,180.5C 212.803,177.756 213.803,175.089 215,172.5C 217.477,156.625 220.477,140.958 224,125.5C 219.676,132.638 214.509,139.138 208.5,145C 204.962,147.846 200.962,148.846 196.5,148C 194.951,146.786 193.785,145.286 193,143.5C 190.79,122.428 197.623,104.928 213.5,91C 217.657,88.2548 221.99,86.0881 226.5,84.5 Z"/></g>
<g><path style="opacity:1" fill="#cc71e6" d="M 283.5,84.5 C 288.499,84.04 293.166,85.04 297.5,87.5C 290.213,112.001 285.38,137.001 283,162.5C 278.584,179.916 268.084,192.083 251.5,199C 235.799,200.633 228.632,193.466 230,177.5C 231.275,173.724 233.775,171.057 237.5,169.5C 238.41,175.723 240.077,181.723 242.5,187.5C 255.14,194.368 264.306,191.034 270,177.5C 273.714,161.214 277.214,144.881 280.5,128.5C 280.154,127.304 279.654,127.304 279,128.5C 275.213,133.956 271.046,139.123 266.5,144C 262.48,147.681 257.813,149.014 252.5,148C 246.167,124.664 252.5,105.33 271.5,90C 275.481,87.8381 279.481,86.0048 283.5,84.5 Z"/></g>
<g><path style="opacity:1" fill="#cc71e6" d="M 340.5,84.5 C 345.499,84.04 350.166,85.04 354.5,87.5C 347.213,112.001 342.38,137.001 340,162.5C 335.584,179.916 325.084,192.083 308.5,199C 292.799,200.633 285.632,193.466 287,177.5C 288.275,173.724 290.775,171.057 294.5,169.5C 295.41,175.723 297.077,181.723 299.5,187.5C 312.14,194.368 321.306,191.034 327,177.5C 330.714,161.214 334.214,144.881 337.5,128.5C 337.154,127.304 336.654,127.304 336,128.5C 332.213,133.956 328.046,139.123 323.5,144C 319.48,147.681 314.813,149.014 309.5,148C 303.167,124.664 309.5,105.33 328.5,90C 332.481,87.8381 336.481,86.0048 340.5,84.5 Z"/></g>
<g><path style="opacity:1" fill="#cc71e6" d="M 423.5,84.5 C 433.102,85.0215 436.269,90.0215 433,99.5C 427.704,112.128 418.537,120.628 405.5,125C 404.216,136.709 409.216,140.709 420.5,137C 424.875,134.089 428.209,130.256 430.5,125.5C 430.665,133.908 426.998,140.408 419.5,145C 411.764,150.143 404.597,149.643 398,143.5C 392.948,121.985 398.781,103.818 415.5,89C 418.099,87.205 420.766,85.705 423.5,84.5 Z"/></g>
<g><path style="opacity:1" fill="#fefcfe" d="M 218.5,92.5 C 228.308,91.4616 231.474,95.4616 228,104.5C 224.915,114.67 220.248,124.003 214,132.5C 211.452,136.36 207.952,137.86 203.5,137C 200.451,119.331 205.451,104.497 218.5,92.5 Z"/></g>
<g><path style="opacity:1" fill="#fefcfe" d="M 275.5,92.5 C 278.883,92.2572 282.049,92.9239 285,94.5C 284.087,109.831 278.587,123.331 268.5,135C 261.588,139.426 258.254,137.593 258.5,129.5C 259.35,118.782 262.517,108.782 268,99.5C 270.396,96.9334 272.896,94.6 275.5,92.5 Z"/></g>
<g><path style="opacity:1" fill="#fefcfe" d="M 332.5,92.5 C 335.883,92.2572 339.049,92.9239 342,94.5C 341.087,109.831 335.587,123.331 325.5,135C 318.588,139.426 315.254,137.593 315.5,129.5C 316.35,118.782 319.517,108.782 325,99.5C 327.396,96.9334 329.896,94.6 332.5,92.5 Z"/></g>
<g><path style="opacity:1" fill="#fdfafe" d="M 411.5,117.5 C 409.219,117.923 407.552,117.256 406.5,115.5C 407.351,106.504 411.351,99.3375 418.5,94C 423.008,93.0038 425.341,94.8371 425.5,99.5C 424.91,108.748 420.243,114.748 411.5,117.5 Z"/></g>
<g><path style="opacity:1" fill="#eac5f5" d="M 406.5,115.5 C 407.552,117.256 409.219,117.923 411.5,117.5C 409.735,118.461 407.735,118.795 405.5,118.5C 405.263,117.209 405.596,116.209 406.5,115.5 Z"/></g>
</svg>
